<svg width="1080" height="1080" viewBox="0 0 1080 1080" fill="none" xmlns="http://www.w3.org/2000/svg">
<path d="M690.1 343.2H613.9V377.5H690.1V343.2Z" fill="#FB6F3E"/>
<path d="M801.4 870.7C801.4 876.2 796.9 880.7 791.4 880.7H304C298.5 880.7 294 876.2 294 870.7V383.3C294 377.8 298.5 373.3 304 373.3H791.4C796.9 373.3 801.4 377.8 801.4 383.3V870.7Z" fill="#0BC2E2"/>
<path d="M547.5 565.5C547.5 565.5 531.8 505.5 453 495.3C374.2 485 298.8 457.2 298.6 423.4C298.6 423.4 347.5 423.7 418.7 434.2C511.3 447.9 542.6 509 547.5 565.5Z" fill="#229DAA"/>
<path d="M547.5 565.5C547.5 565.5 563.2 505.5 642 495.3C720.8 485 796.2 457.2 796.4 423.4C796.4 423.4 747.5 423.7 676.3 434.2C583.7 447.9 552.4 509 547.5 565.5Z" fill="#229DAA"/>
<path d="M409.5 841.1H391.9V920.2H409.5V841.1Z" fill="#229DAA"/>
<path d="M444.7 841.1H427.1V920.2H444.7V841.1Z" fill="#229DAA"/>
<path d="M479.8 841.1H462.2V920.2H479.8V841.1Z" fill="#229DAA"/>
<path d="M632.8 841.1H615.2V920.2H632.8V841.1Z" fill="#229DAA"/>
<path d="M668 841.1H650.4V920.2H668V841.1Z" fill="#229DAA"/>
<path d="M703.1 841.1H685.5V920.2H703.1V841.1Z" fill="#229DAA"/>
<path d="M547.5 821.5V615.5L477.7 685.3L547.5 821.5Z" fill="#D15833"/>
<path d="M547.5 821.5V615.5L617.3 685.3L547.5 821.5Z" fill="#FB6F3E"/>
<path d="M803.2 600.8C803.2 671.7 745.8 729.1 674.9 729.1C604 729.1 546.6 671.7 546.6 600.8C546.6 530 604 472.5 674.9 472.5C745.7 472.5 803.2 529.9 803.2 600.8Z" fill="white"/>
<path d="M716.2 609.3C694.8 609.3 677.5 592 677.5 570.6C677.5 557.5 684.1 545.9 694 539C688 537.1 681.5 536.1 674.9 536.1C639.2 536.1 610.2 565.1 610.2 600.8C610.2 636.5 639.2 665.5 674.9 665.5C710.5 665.5 739.3 636.8 739.6 601.2C733.1 606.2 725.1 609.3 716.2 609.3Z" fill="#231F20"/>
<path d="M548.4 600.8C548.4 671.7 491 729.1 420.1 729.1C349.2 729.1 291.8 671.7 291.8 600.8C291.8 530 349.2 472.5 420.1 472.5C490.9 472.5 548.4 529.9 548.4 600.8Z" fill="white"/>
<path d="M461.4 609.3C440 609.3 422.7 592 422.7 570.6C422.7 557.5 429.3 545.9 439.2 539C433.2 537.1 426.7 536.1 420.1 536.1C384.4 536.1 355.4 565.1 355.4 600.8C355.4 636.5 384.4 665.5 420.1 665.5C455.7 665.5 484.5 636.8 484.8 601.2C478.3 606.2 470.3 609.3 461.4 609.3Z" fill="#231F20"/>
<path d="M185.6 342.2C174.1 341 162.7 339.8 151.2 338.6C128.8 336.3 106.3 334 83.9 331.6C82.7 331.5 81.6 330.2 80.5 329.4C81.4 328.1 82.1 326.2 83.3 325.5C112.1 309.1 141 292.8 169.8 276.5C237.6 238.1 305.5 199.7 373.4 161.4C375.7 160.1 379 159.5 381.5 160C438 171 494.4 182.3 550.8 193.4C602.4 203.6 654 213.8 705.6 224C706.5 224.2 707.5 224.2 708.3 224.6C709.7 225.4 711 226.4 712.4 227.3C711.3 228.5 710.5 230.2 709.2 230.8C688 240.5 666.7 250 645.5 259.6C618.7 271.7 591.8 283.8 565 295.9C564 296.3 563.1 296.9 561.8 297.5C563.9 310.8 566.1 324.1 568.2 337.4C569.5 345.3 570.9 353.1 572.1 361C572.9 366.6 570.4 371.2 567.1 375.4C559.4 385.2 548.9 391.3 538.1 396.9C511.9 410.5 483.9 418.9 455.2 425.3C411.1 435.1 366.6 440.5 321.3 437.8C305.8 436.9 290.4 435 275.8 429.3C271.3 427.5 267 425 262.9 422.3C258.6 419.5 256.4 415.2 255.6 410C252.4 389.5 249 369.1 245.6 348.2C228.6 346.4 211.6 344.7 193.9 342.8L185.6 342.2Z" fill="#FB6F3E"/>
<path d="M170.7 305.4C165.1 316.4 162.3 375.9 162.3 375.9C162.3 378.7 161 379.5 158.9 380.6C152.5 384 150.1 390 153.4 395.5C157.3 402.2 155.3 409.2 155.4 416C155.4 422.2 153.5 428.6 154.4 434.6C157.2 452.6 157.4 470.4 154 488.2C153.4 491.2 154.5 493 157 493.4C161.8 494.1 166.7 494.8 171.4 494.3C177.2 493.7 177.9 491.9 177 486.2C174.6 471.9 174 457.6 176.3 443.1C177.5 435.7 177.6 428.2 177.6 420.7C177.6 414.5 176.7 408.3 176.5 402.1C176.4 400.4 177.1 398.5 178 397C181.7 390.4 180.3 384.2 173.5 380.8C170.7 379.3 170 377.6 170.1 374.7L172.6 316.7L170.7 305.4Z" fill="#FB6F3E"/>
</svg>
