<svg width="1080" height="1080" viewBox="0 0 1080 1080" fill="none" xmlns="http://www.w3.org/2000/svg">
<path d="M642.2 303.7H598.9V323.2H642.2V303.7Z" fill="#FB6F3E"/>
<path d="M705.5 599.5C705.5 605 701 609.5 695.5 609.5H426.9C421.4 609.5 416.9 605 416.9 599.5V330.8C416.9 325.3 421.4 320.8 426.9 320.8H695.6C701.1 320.8 705.6 325.3 705.6 330.8V599.5H705.5Z" fill="#0BC2E2"/>
<path d="M561.1 430.2C561.1 430.2 552.2 396.1 507.4 390.2C462.5 384.3 419.7 368.5 419.6 349.3C419.6 349.3 447.4 349.5 487.9 355.5C540.5 363.2 558.3 398 561.1 430.2Z" fill="#229DAA"/>
<path d="M561.1 430.2C561.1 430.2 570 396.1 614.9 390.2C659.7 384.3 702.6 368.5 702.7 349.3C702.7 349.3 674.9 349.5 634.4 355.5C581.7 363.2 563.9 398 561.1 430.2Z" fill="#229DAA"/>
<path d="M482.6 587H472.6V632H482.6V587Z" fill="#229DAA"/>
<path d="M502.6 587H492.6V632H502.6V587Z" fill="#229DAA"/>
<path d="M522.6 587H512.6V632H522.6V587Z" fill="#229DAA"/>
<path d="M609.6 587H599.6V632H609.6V587Z" fill="#229DAA"/>
<path d="M629.6 587H619.6V632H629.6V587Z" fill="#229DAA"/>
<path d="M649.6 587H639.6V632H649.6V587Z" fill="#229DAA"/>
<path d="M561.1 575.8V458.6L521.4 498.3L561.1 575.8Z" fill="#D15833"/>
<path d="M561.1 575.8V458.6L600.8 498.3L561.1 575.8Z" fill="#FB6F3E"/>
<path d="M706.6 450.2C706.6 490.5 673.9 523.2 633.6 523.2C593.3 523.2 560.6 490.5 560.6 450.2C560.6 409.9 593.3 377.2 633.6 377.2C673.9 377.3 706.6 409.9 706.6 450.2Z" fill="white"/>
<path d="M657.1 455.1C645 455.1 635.1 445.2 635.1 433.1C635.1 425.6 638.8 419.1 644.5 415.1C641.1 414 637.4 413.5 633.6 413.5C613.3 413.5 596.8 430 596.8 450.3C596.8 470.6 613.3 487.1 633.6 487.1C653.9 487.1 670.3 470.7 670.4 450.5C666.7 453.3 662.1 455.1 657.1 455.1Z" fill="#231F20"/>
<path d="M561.6 450.2C561.6 490.5 528.9 523.2 488.6 523.2C448.3 523.2 415.6 490.5 415.6 450.2C415.6 409.9 448.3 377.2 488.6 377.2C528.9 377.3 561.6 409.9 561.6 450.2Z" fill="white"/>
<path d="M512.1 455.1C500 455.1 490.1 445.2 490.1 433.1C490.1 425.6 493.8 419.1 499.5 415.1C496.1 414 492.4 413.5 488.6 413.5C468.3 413.5 451.8 430 451.8 450.3C451.8 470.6 468.3 487.1 488.6 487.1C508.9 487.1 525.3 470.7 525.4 450.5C521.7 453.3 517.1 455.1 512.1 455.1Z" fill="#231F20"/>
<path d="M355.2 303.1C348.7 302.4 342.2 301.7 335.7 301.1C322.9 299.8 310.2 298.5 297.4 297.1C296.7 297 296.1 296.3 295.5 295.9C296 295.1 296.4 294.1 297.1 293.7C313.5 284.4 329.9 275.1 346.3 265.8C384.9 244 423.5 222.1 462.1 200.3C463.4 199.6 465.3 199.2 466.7 199.5C498.8 205.8 530.9 212.2 563 218.5C592.4 224.3 621.7 230.1 651.1 235.9C651.6 236 652.2 236 652.6 236.3C653.4 236.7 654.1 237.3 654.9 237.9C654.3 238.6 653.8 239.6 653.1 239.9C641 245.4 628.9 250.8 616.8 256.3C601.5 263.2 586.2 270.1 571 276.9C570.5 277.1 569.9 277.4 569.2 277.8C570.4 285.4 571.6 292.9 572.8 300.5C573.5 305 574.3 309.4 575 313.9C575.5 317.1 574 319.7 572.2 322.1C567.8 327.7 561.8 331.2 555.7 334.3C540.8 342 524.8 346.8 508.5 350.5C483.4 356.1 458.1 359.2 432.3 357.6C423.5 357.1 414.7 356 406.4 352.8C403.8 351.8 401.4 350.4 399.1 348.8C396.7 347.2 395.4 344.8 395 341.8C393.2 330.2 391.3 318.5 389.3 306.6C379.6 305.6 369.9 304.6 359.9 303.5L355.2 303.1Z" fill="#FB6F3E"/>
<path d="M346.7 282.2C343.5 288.5 341.9 322.3 341.9 322.3C341.9 323.9 341.1 324.3 340 325C336.4 326.9 335 330.3 336.9 333.5C339.1 337.3 338 341.3 338 345.2C338 348.7 336.9 352.4 337.4 355.8C339 366 339.1 376.1 337.2 386.3C336.9 388 337.5 389 338.9 389.2C341.6 389.6 344.4 390 347.1 389.7C350.4 389.4 350.8 388.4 350.3 385.1C349 377 348.6 368.8 349.9 360.6C350.6 356.4 350.6 352.1 350.6 347.8C350.6 344.3 350.1 340.8 350 337.2C350 336.2 350.3 335.1 350.8 334.3C352.9 330.5 352.1 327 348.2 325.1C346.6 324.3 346.2 323.3 346.2 321.6L347.6 288.6L346.7 282.2Z" fill="#FB6F3E"/>
<path d="M388.646 699.796H348.861V680.933H450.723V699.796H410.939V800.972H388.646V699.796ZM551.876 709.399V800.972H531.47V789.311C528.04 793.427 523.753 796.628 518.608 798.914C513.464 801.086 507.919 802.173 501.974 802.173C489.742 802.173 480.081 798.8 472.993 792.055C466.02 785.196 462.533 775.078 462.533 761.702V709.399H483.968V758.787C483.968 767.018 485.798 773.192 489.456 777.307C493.229 781.309 498.545 783.309 505.404 783.309C513.064 783.309 519.123 780.966 523.581 776.278C528.154 771.477 530.441 764.617 530.441 755.7V709.399H551.876ZM593.623 699.796H553.839V680.933H655.701V699.796H615.916V800.972H593.623V699.796ZM756.854 709.399V800.972H736.447V789.311C733.018 793.427 728.731 796.628 723.586 798.914C718.442 801.086 712.897 802.173 706.952 802.173C694.72 802.173 685.059 798.8 677.971 792.055C670.997 785.196 667.511 775.078 667.511 761.702V709.399H688.946V758.787C688.946 767.018 690.775 773.192 694.434 777.307C698.206 781.309 703.522 783.309 710.382 783.309C718.041 783.309 724.101 780.966 728.559 776.278C733.132 771.477 735.419 764.617 735.419 755.7V709.399H756.854Z" fill="#0BC2E2"/>
<path d="M363.581 835.914H351.818V832.853H378.883V835.914H367.12V866.326H363.581V835.914ZM405.831 841.174V866.326H402.579V861.736C401.686 863.266 400.459 864.461 398.897 865.322C397.335 866.151 395.55 866.565 393.541 866.565C390.258 866.565 387.66 865.657 385.747 863.84C383.866 861.991 382.926 859.297 382.926 855.758V841.174H386.321V855.424C386.321 858.07 386.974 860.078 388.281 861.449C389.588 862.819 391.453 863.505 393.876 863.505C396.522 863.505 398.61 862.708 400.14 861.114C401.671 859.488 402.436 857.241 402.436 854.372V841.174H405.831ZM438.627 841.174V863.266C438.627 867.538 437.575 870.694 435.471 872.734C433.399 874.806 430.259 875.842 426.051 875.842C423.724 875.842 421.508 875.491 419.404 874.79C417.332 874.121 415.642 873.18 414.335 871.969L416.057 869.387C417.268 870.47 418.735 871.315 420.456 871.921C422.209 872.527 424.042 872.829 425.955 872.829C429.143 872.829 431.486 872.08 432.984 870.582C434.483 869.116 435.232 866.82 435.232 863.696V860.492C434.18 862.086 432.793 863.298 431.072 864.127C429.382 864.955 427.501 865.37 425.429 865.37C423.07 865.37 420.918 864.86 418.974 863.84C417.061 862.788 415.547 861.337 414.431 859.488C413.347 857.607 412.805 855.487 412.805 853.128C412.805 850.769 413.347 848.665 414.431 846.816C415.547 844.967 417.061 843.533 418.974 842.513C420.886 841.493 423.038 840.982 425.429 840.982C427.565 840.982 429.494 841.413 431.215 842.274C432.937 843.134 434.323 844.378 435.375 846.003V841.174H438.627ZM425.764 862.357C427.581 862.357 429.223 861.975 430.689 861.21C432.156 860.413 433.287 859.313 434.084 857.91C434.913 856.507 435.328 854.914 435.328 853.128C435.328 851.343 434.913 849.765 434.084 848.394C433.287 846.992 432.156 845.908 430.689 845.143C429.255 844.346 427.613 843.947 425.764 843.947C423.947 843.947 422.305 844.33 420.839 845.095C419.404 845.86 418.272 846.944 417.443 848.346C416.647 849.749 416.248 851.343 416.248 853.128C416.248 854.914 416.647 856.507 417.443 857.91C418.272 859.313 419.404 860.413 420.839 861.21C422.305 861.975 423.947 862.357 425.764 862.357ZM456.92 840.982C460.203 840.982 462.722 841.811 464.475 843.469C466.228 845.095 467.105 847.518 467.105 850.737V866.326H463.853V862.405C463.088 863.712 461.957 864.732 460.458 865.465C458.992 866.199 457.239 866.565 455.198 866.565C452.393 866.565 450.161 865.896 448.504 864.557C446.846 863.218 446.017 861.449 446.017 859.249C446.017 857.113 446.782 855.392 448.312 854.085C449.875 852.778 452.345 852.124 455.724 852.124H463.71V850.594C463.71 848.426 463.104 846.784 461.893 845.669C460.681 844.521 458.912 843.947 456.585 843.947C454.991 843.947 453.461 844.218 451.994 844.76C450.528 845.27 449.269 845.987 448.217 846.912L446.687 844.378C447.962 843.294 449.492 842.465 451.277 841.891C453.062 841.285 454.943 840.982 456.92 840.982ZM455.724 863.887C457.637 863.887 459.279 863.457 460.65 862.596C462.02 861.704 463.04 860.429 463.71 858.771V854.659H455.82C451.516 854.659 449.364 856.157 449.364 859.153C449.364 860.62 449.922 861.783 451.038 862.644C452.154 863.473 453.716 863.887 455.724 863.887ZM483.069 866.565C481.029 866.565 479.068 866.278 477.187 865.705C475.338 865.099 473.888 864.35 472.836 863.457L474.366 860.779C475.418 861.608 476.741 862.293 478.335 862.835C479.929 863.345 481.587 863.601 483.308 863.601C485.603 863.601 487.293 863.25 488.377 862.549C489.492 861.815 490.05 860.795 490.05 859.488C490.05 858.564 489.748 857.846 489.142 857.336C488.536 856.794 487.771 856.396 486.847 856.141C485.922 855.854 484.695 855.583 483.165 855.328C481.124 854.945 479.483 854.563 478.239 854.18C476.996 853.766 475.928 853.081 475.035 852.124C474.175 851.168 473.744 849.845 473.744 848.155C473.744 846.051 474.621 844.33 476.374 842.991C478.128 841.652 480.566 840.982 483.691 840.982C485.316 840.982 486.942 841.206 488.568 841.652C490.194 842.066 491.533 842.624 492.585 843.326L491.102 846.051C489.03 844.617 486.56 843.899 483.691 843.899C481.523 843.899 479.881 844.282 478.765 845.047C477.681 845.812 477.139 846.816 477.139 848.06C477.139 849.016 477.442 849.781 478.048 850.355C478.686 850.929 479.467 851.359 480.391 851.646C481.316 851.901 482.591 852.172 484.217 852.459C486.225 852.841 487.835 853.224 489.046 853.607C490.258 853.989 491.294 854.643 492.154 855.567C493.015 856.492 493.445 857.767 493.445 859.393C493.445 861.592 492.521 863.345 490.672 864.653C488.855 865.928 486.321 866.565 483.069 866.565ZM519.457 835.914H507.694V832.853H534.759V835.914H522.996V866.326H519.457V835.914ZM561.707 841.174V866.326H558.456V861.736C557.563 863.266 556.336 864.461 554.774 865.322C553.211 866.151 551.426 866.565 549.418 866.565C546.134 866.565 543.536 865.657 541.624 863.84C539.743 861.991 538.802 859.297 538.802 855.758V841.174H542.197V855.424C542.197 858.07 542.851 860.078 544.158 861.449C545.465 862.819 547.33 863.505 549.753 863.505C552.399 863.505 554.487 862.708 556.017 861.114C557.547 859.488 558.312 857.241 558.312 854.372V841.174H561.707ZM584.031 840.982C587.187 840.982 589.69 841.907 591.539 843.756C593.42 845.573 594.36 848.235 594.36 851.742V866.326H590.965V852.076C590.965 849.462 590.311 847.47 589.004 846.099C587.697 844.728 585.832 844.043 583.41 844.043C580.7 844.043 578.548 844.856 576.954 846.482C575.392 848.076 574.611 850.291 574.611 853.128V866.326H571.216V841.174H574.468V845.812C575.392 844.282 576.667 843.102 578.293 842.274C579.951 841.413 581.863 840.982 584.031 840.982ZM616.823 864.796C616.185 865.37 615.388 865.816 614.432 866.135C613.508 866.422 612.535 866.565 611.515 866.565C609.156 866.565 607.339 865.928 606.064 864.653C604.789 863.377 604.151 861.576 604.151 859.249V844.043H599.656V841.174H604.151V835.675H607.546V841.174H615.197V844.043H607.546V859.058C607.546 860.556 607.913 861.704 608.646 862.501C609.411 863.266 610.495 863.648 611.898 863.648C612.599 863.648 613.269 863.537 613.906 863.314C614.576 863.09 615.149 862.772 615.628 862.357L616.823 864.796ZM631.802 840.982C635.086 840.982 637.604 841.811 639.357 843.469C641.111 845.095 641.987 847.518 641.987 850.737V866.326H638.736V862.405C637.971 863.712 636.839 864.732 635.341 865.465C633.874 866.199 632.121 866.565 630.081 866.565C627.275 866.565 625.044 865.896 623.386 864.557C621.728 863.218 620.9 861.449 620.9 859.249C620.9 857.113 621.665 855.392 623.195 854.085C624.757 852.778 627.227 852.124 630.607 852.124H638.592V850.594C638.592 848.426 637.987 846.784 636.775 845.669C635.564 844.521 633.795 843.947 631.467 843.947C629.873 843.947 628.343 844.218 626.877 844.76C625.41 845.27 624.151 845.987 623.099 846.912L621.569 844.378C622.844 843.294 624.374 842.465 626.16 841.891C627.945 841.285 629.826 840.982 631.802 840.982ZM630.607 863.887C632.519 863.887 634.161 863.457 635.532 862.596C636.903 861.704 637.923 860.429 638.592 858.771V854.659H630.702C626.399 854.659 624.247 856.157 624.247 859.153C624.247 860.62 624.805 861.783 625.92 862.644C627.036 863.473 628.598 863.887 630.607 863.887ZM657.951 866.565C655.911 866.565 653.95 866.278 652.07 865.705C650.221 865.099 648.77 864.35 647.718 863.457L649.248 860.779C650.3 861.608 651.623 862.293 653.217 862.835C654.811 863.345 656.469 863.601 658.19 863.601C660.486 863.601 662.175 863.25 663.259 862.549C664.375 861.815 664.933 860.795 664.933 859.488C664.933 858.564 664.63 857.846 664.024 857.336C663.418 856.794 662.653 856.396 661.729 856.141C660.804 855.854 659.577 855.583 658.047 855.328C656.007 854.945 654.365 854.563 653.122 854.18C651.878 853.766 650.81 853.081 649.918 852.124C649.057 851.168 648.627 849.845 648.627 848.155C648.627 846.051 649.503 844.33 651.257 842.991C653.01 841.652 655.449 840.982 658.573 840.982C660.199 840.982 661.825 841.206 663.45 841.652C665.076 842.066 666.415 842.624 667.467 843.326L665.985 846.051C663.913 844.617 661.442 843.899 658.573 843.899C656.405 843.899 654.763 844.282 653.648 845.047C652.564 845.812 652.022 846.816 652.022 848.06C652.022 849.016 652.325 849.781 652.93 850.355C653.568 850.929 654.349 851.359 655.273 851.646C656.198 851.901 657.473 852.172 659.099 852.459C661.107 852.841 662.717 853.224 663.929 853.607C665.14 853.989 666.176 854.643 667.037 855.567C667.897 856.492 668.328 857.767 668.328 859.393C668.328 861.592 667.403 863.345 665.554 864.653C663.737 865.928 661.203 866.565 657.951 866.565Z" fill="#0BC2E2"/>
</svg>
